<svg xmlns="http://www.w3.org/2000/svg" viewBox="0 0 64 64" width="200" height="200">
  <circle cx="32" cy="32" r="30" fill="#1E88E5"/>
  <path d="M44.9 22.6l-3.5 3.5-4.5-4.5-3.5 3.5 4.5 4.5-3.5 3.5-4.5-4.5-3.5 3.5 4.5 4.5-3.5 3.5-4.5-4.5-3.5 3.5 4.5 4.5-3.5 3.5-4.5-4.5-3.5 3.5 4.5 4.5-3.5 3.5-4.5-4.5-3.5 3.5 4.5 4.5-3.5 3.5-4.5-4.5-3.5 3.5 4.5 4.5-3.5 3.5-4.5-4.5-3.5 3.5 4.5 4.5-3.5 3.5-4.5-4.5-3.5 3.5 4.5 4.5-3.5 3.5-4.5-4.5-3.5 3.5 4.5 4.5-3.5 3.5-4.5-4.5-3.5 3.5 4.5 4.5-3.5 3.5-4.5-4.5-3.5 3.5 4.5 4.5-3.5 3.5-4.5-4.5-3.5 3.5 4.5 4.5-3.5 3.5-4.5-4.5-3.5 3.5 4.5 4.5-3.5 3.5-4.5-4.5-3.5 3.5 4.5 4.5-3.5 3.5-4.5-4.5-3.5 3.5 4.5 4.5-3.5 3.5-4.5-4.5-3.5 3.5 4.5 4.5-3.5 3.5-4.5-4.5-3.5 3.5 4.5 4.5-3.5 3.5-4.5-4.5-3.5 3.5 4.5 4.5-3.5 3.5-4.5-4.5-3.5 3.5 4.5 4.5-3.5 3.5-4.5-4.5-3.5 3.5 4.5 4.5-3.5 3.5z" fill="#FFFFFF"/>
</svg>
